<svg width="48" height="52" viewBox="0 0 48 52" fill="none" xmlns="http://www.w3.org/2000/svg">
<g filter="url(#filter0_d_1594_590)">
<path d="M21.3 38.22V9.78C21.3 7.08 20.16 6 17.28 6H10.02C7.14 6 6 7.08 6 9.78V38.22C6 40.92 7.14 42 10.02 42H17.28C20.16 42 21.3 40.92 21.3 38.22Z" stroke="url(#paint0_linear_1594_590)" stroke-width="3" stroke-linecap="round" stroke-linejoin="round"/>
<path d="M42.0002 38.22V9.78C42.0002 7.08 40.8602 6 37.9802 6H30.7202C27.8602 6 26.7002 7.08 26.7002 9.78V38.22C26.7002 40.92 27.8402 42 30.7202 42H37.9802C40.8602 42 42.0002 40.92 42.0002 38.22Z" stroke="url(#paint1_linear_1594_590)" stroke-width="3" stroke-linecap="round" stroke-linejoin="round"/>
</g>
<defs>
<filter id="filter0_d_1594_590" x="0.5" y="4.5" width="47" height="47" filterUnits="userSpaceOnUse" color-interpolation-filters="sRGB">
<feFlood flood-opacity="0" result="BackgroundImageFix"/>
<feColorMatrix in="SourceAlpha" type="matrix" values="0 0 0 0 0 0 0 0 0 0 0 0 0 0 0 0 0 0 127 0" result="hardAlpha"/>
<feOffset dy="4"/>
<feGaussianBlur stdDeviation="2"/>
<feComposite in2="hardAlpha" operator="out"/>
<feColorMatrix type="matrix" values="0 0 0 0 0 0 0 0 0 0 0 0 0 0 0 0 0 0 0.25 0"/>
<feBlend mode="normal" in2="BackgroundImageFix" result="effect1_dropShadow_1594_590"/>
<feBlend mode="normal" in="SourceGraphic" in2="effect1_dropShadow_1594_590" result="shape"/>
</filter>
<linearGradient id="paint0_linear_1594_590" x1="13.65" y1="6" x2="13.65" y2="42" gradientUnits="userSpaceOnUse">
<stop stop-color="#A855F7"/>
<stop offset="1" stop-color="#2CF8C0"/>
</linearGradient>
<linearGradient id="paint1_linear_1594_590" x1="34.3502" y1="6" x2="34.3502" y2="42" gradientUnits="userSpaceOnUse">
<stop stop-color="#A855F7"/>
<stop offset="1" stop-color="#2CF8C0"/>
</linearGradient>
</defs>
</svg>
