<svg width="47" height="49" viewBox="0 0 47 49" fill="none" xmlns="http://www.w3.org/2000/svg">
<g filter="url(#filter0_d_1037_604)">
<path d="M26.5993 6.28922L29.7526 12.5959C30.1826 13.4738 31.3293 14.3159 32.2968 14.4771L38.0122 15.4267C41.6672 16.0359 42.5272 18.6876 39.8935 21.3034L35.4501 25.7467C34.6976 26.4992 34.2855 27.9505 34.5185 28.9896L35.7905 34.4901C36.7939 38.8438 34.4826 40.528 30.6305 38.2526L25.2735 35.0813C24.306 34.508 22.7114 34.508 21.726 35.0813L16.3689 38.2526C12.5347 40.528 10.2055 38.8259 11.2089 34.4901L12.481 28.9896C12.7139 27.9505 12.3018 26.4992 11.5493 25.7467L7.10596 21.3034C4.49013 18.6876 5.33222 16.0359 8.98722 15.4267L14.7026 14.4771C15.6522 14.3159 16.7989 13.4738 17.2289 12.5959L20.3822 6.28922C22.1022 2.86714 24.8972 2.86714 26.5993 6.28922Z" stroke="url(#paint0_linear_1037_604)" stroke-width="1.5" stroke-linecap="round" stroke-linejoin="round"/>
</g>
<defs>
<filter id="filter0_d_1037_604" x="-2" y="0" width="51" height="51" filterUnits="userSpaceOnUse" color-interpolation-filters="sRGB">
<feFlood flood-opacity="0" result="BackgroundImageFix"/>
<feColorMatrix in="SourceAlpha" type="matrix" values="0 0 0 0 0 0 0 0 0 0 0 0 0 0 0 0 0 0 127 0" result="hardAlpha"/>
<feOffset dy="4"/>
<feGaussianBlur stdDeviation="2"/>
<feComposite in2="hardAlpha" operator="out"/>
<feColorMatrix type="matrix" values="0 0 0 0 0 0 0 0 0 0 0 0 0 0 0 0 0 0 0.25 0"/>
<feBlend mode="normal" in2="BackgroundImageFix" result="effect1_dropShadow_1037_604"/>
<feBlend mode="normal" in="SourceGraphic" in2="effect1_dropShadow_1037_604" result="shape"/>
</filter>
<linearGradient id="paint0_linear_1037_604" x1="23.5036" y1="3.72266" x2="23.5036" y2="39.2662" gradientUnits="userSpaceOnUse">
<stop stop-color="#A855F7"/>
<stop offset="1" stop-color="#2EF6C1"/>
</linearGradient>
</defs>
</svg>
